<svg width="126" height="39" viewBox="0 0 126 39" fill="none" xmlns="http://www.w3.org/2000/svg">
<g clip-path="url(#clip0_1041_149)">
<path d="M18.1576 19.5568C21.7856 23.3121 25.3483 27.1342 29.0415 30.8259L39.9255 19.5568L35.6627 12.1735H22.4204C20.9995 14.6336 19.5785 17.0952 18.1576 19.5568ZM33.4588 15.9925L35.1789 18.9728L29.0415 25.3282L22.9042 18.9728L24.6243 15.9925H33.4588Z" fill="url(#paint0_linear_1041_149)"/>
<path d="M22.9019 18.974L29.0399 25.3297L35.1778 18.974L35.1848 18.9853C36.39 21.0726 35.9953 23.6492 34.386 25.291L34.3809 25.2967L29.0399 30.8272C25.3468 27.1341 21.7838 23.3136 18.1556 19.5567L21.9736 12.9437C20.9126 14.8276 21.1874 17.2626 22.7902 18.8655C22.8243 18.8995 22.8617 18.9355 22.9022 18.9733L22.9019 18.974ZM22.026 12.8533L22.0258 12.8535L22.0323 12.8422L22.026 12.8533Z" fill="url(#paint1_linear_1041_149)"/>
<path d="M14.5944 8.03067C14.8629 7.69845 15.1419 7.37493 15.4339 7.06278C16.5717 5.84361 17.8775 4.7903 19.2992 3.92339C19.5165 3.78773 19.6923 3.68134 19.698 3.67815C21.1265 2.84896 22.6667 2.2155 24.2641 1.78914C26.5341 1.17429 28.9232 0.978934 31.284 1.26229C31.3315 1.26766 31.3776 1.27346 31.424 1.28079C32.0421 1.35569 32.6576 1.46421 33.2652 1.60453C38.9416 2.91865 43.8962 7.01088 46.2138 12.4324C48.6056 18.0268 48.0704 24.7777 44.7026 29.9583C40.4439 36.511 31.8842 39.9479 24.0377 37.7095C23.7096 37.6162 23.4614 37.5262 23.0762 37.4104C23.0762 37.4104 22.6411 37.2683 22.2952 37.1699C19.2332 36.2985 15.9515 36.2487 12.8815 36.989L9.6691 37.8497L8.01804 31.6879C10.3271 30.4316 11.7959 27.6626 11.2104 24.9119C11.178 24.797 7.96386 12.7956 7.96386 12.7956C7.34877 9.98367 4.60576 7.83743 1.64934 7.91958L-0.000900617 1.76078C1.56182 1.3404 3.12609 0.919615 4.69046 0.505385C8.12414 -0.414665 11.9394 0.310883 14.9119 2.30505C13.8922 3.13509 12.9449 4.05114 12.085 5.04098C11.0833 4.46265 9.96755 4.0796 8.79398 3.95421C7.7341 3.84119 6.64791 3.93126 5.62201 4.20944L4.65523 4.46849C8.05879 5.45262 10.881 8.36178 11.6845 11.9321L11.6761 11.8948C13.2594 17.8096 14.9562 24.1668 14.9562 24.1668C15.6134 27.3513 14.635 30.7945 12.3571 33.1692L12.3313 33.1959C12.3778 33.1851 12.4228 33.1747 12.4697 33.1654C16.372 32.3158 20.4237 32.5217 24.1769 33.7532C24.1769 33.7532 24.9001 33.9992 25.5338 34.1572C30.6443 35.4434 36.3728 33.7553 39.9724 29.8453C43.9445 25.5307 45.0524 18.7894 42.4344 13.3413C40.2149 8.72212 35.4722 5.45773 30.3356 5.00222C30.285 4.99767 30.2332 4.99507 30.1826 4.99052C24.7077 4.57621 19.1311 7.44602 16.312 12.2275C16.1716 12.4658 16.0376 12.7077 15.9101 12.953C15.5286 11.5232 15.0816 9.84895 14.5944 8.03067Z" fill="url(#paint2_linear_1041_149)"/>
<path d="M30.1186 4.98454C24.6645 4.5966 19.1218 7.46336 16.312 12.2265C16.1722 12.4636 16.0391 12.7046 15.9131 12.9493C16.9792 7.71095 20.9021 3.25456 26.4125 1.77806C28.7097 1.16241 31.0272 1.13345 33.2053 1.59905C33.2301 1.59841 33.2503 1.6 33.2659 1.6035C38.9421 2.91817 43.8978 7.00906 46.215 12.4302C48.6068 18.0256 48.0713 24.7765 44.7036 29.9565C42.0476 34.0421 37.7199 36.9168 32.9357 37.9595L32.9351 37.9599L32.8651 37.975L32.9357 37.9595C41.3159 35.2346 46.1927 26.3789 43.8856 17.7683C43.7877 17.4028 43.6775 17.0407 43.5552 16.6826C43.3212 15.5264 42.945 14.4036 42.4352 13.3398C40.2156 8.72043 35.4731 5.4565 30.3364 5.00013C30.2852 4.99682 30.234 4.99321 30.1827 4.98932L30.1186 4.98454Z" fill="url(#paint3_linear_1041_149)"/>
<path d="M95.1815 30.8417H91.3624V12.1956H95.1815V30.8417ZM116.75 12.1749C120.119 12.2067 123.375 14.1877 124.942 17.1554C126.285 19.6983 126.357 22.8808 125.119 25.4886C123.375 29.1629 119.077 31.4513 114.927 30.6555C111.122 29.925 107.964 26.5882 107.45 22.7439C107.057 19.8017 108.164 16.7004 110.341 14.6733C112.032 13.0995 114.316 12.1972 116.631 12.1749H116.75ZM59.1755 13.9809C61.1068 12.5822 63.5638 11.9204 65.9556 12.2735C68.8899 12.7063 71.5919 14.573 72.962 17.2174C74.3142 19.8272 74.3349 23.0892 73.0033 25.7053C70.6736 30.2817 64.2625 32.409 59.597 29.2727C59.4539 29.1757 59.3139 29.0754 59.1755 28.972V30.8242H55.3563V5.96145H59.1755V13.9809ZM86.1929 12.1749C86.9756 12.1844 87.7552 12.2974 88.5112 12.5026L88.5462 12.5122L87.5598 16.1961C87.2703 16.1134 87.1602 16.0943 86.9553 16.0609C83.973 15.5753 80.7269 18.0686 80.6441 21.2339C80.6394 21.4152 80.6425 21.6014 80.633 21.7461V30.821H76.8142V12.1749H80.633V13.9745C82.1988 12.8434 84.1292 12.1991 86.0736 12.1749H86.1929ZM102.805 24.5754C102.805 24.5754 102.804 25.2627 103.107 25.7832C103.641 26.6932 104.801 27.1705 105.827 26.9032L106.81 30.5712C105.133 31.0199 103.292 30.7892 101.833 29.8171C100.111 28.6698 99.0134 26.6423 98.9864 24.5754V5.95795H102.805V24.5754ZM116.656 15.994C114.215 16.0179 111.904 17.8236 111.336 20.2201C110.898 22.0595 111.488 24.1093 112.848 25.4364C114.362 26.9159 116.762 27.4174 118.769 26.5978C120.521 25.8819 121.846 24.2111 122.132 22.3399C122.588 19.3674 120.25 16.2276 117.083 16.0068C116.94 15.9972 116.799 15.994 116.656 15.994ZM64.6444 15.9972C61.6799 16.0338 58.9002 18.7291 59.2152 21.8925C59.4857 24.5977 61.8915 27.0054 64.6762 27.0054C67.488 27.0069 70.1629 24.5102 70.1772 21.622C70.1916 18.7578 67.6916 16.0227 64.716 15.9972H64.6444ZM95.1803 9.79458H91.3611V5.97863H95.1803V9.79458Z" fill="#00065B"/>
</g>
<defs>
<linearGradient id="paint0_linear_1041_149" x1="22.1661" y1="19.2653" x2="29.9986" y2="15.6125" gradientUnits="userSpaceOnUse">
<stop stop-color="#009E67"/>
<stop offset="1" stop-color="#02EB81"/>
</linearGradient>
<linearGradient id="paint1_linear_1041_149" x1="36.1733" y1="21.2202" x2="27.7552" y2="25.6839" gradientUnits="userSpaceOnUse">
<stop stop-color="#009E67"/>
<stop offset="1" stop-color="#01D684"/>
</linearGradient>
<linearGradient id="paint2_linear_1041_149" x1="25.8958" y1="6.44567" x2="21.4849" y2="25.509" gradientUnits="userSpaceOnUse">
<stop stop-color="#3F99FE"/>
<stop offset="1" stop-color="#264AFB"/>
</linearGradient>
<linearGradient id="paint3_linear_1041_149" x1="37.2094" y1="37.1513" x2="11.9243" y2="14.7786" gradientUnits="userSpaceOnUse">
<stop stop-color="#3477FD"/>
<stop offset="0.07" stop-color="#3B8BFE"/>
<stop offset="0.14" stop-color="#419DFF"/>
<stop offset="0.37" stop-color="#43A4FF"/>
<stop offset="0.73" stop-color="#44A8FF"/>
<stop offset="1" stop-color="#264AFB"/>
</linearGradient>
<clipPath id="clip0_1041_149">
<rect width="126" height="38.5" fill="white"/>
</clipPath>
</defs>
</svg>
